<svg xmlns="http://www.w3.org/2000/svg" viewBox="0 0 800 800" xml:space="preserve" style="fill-rule:evenodd;clip-rule:evenodd;stroke-linejoin:round;stroke-miterlimit:2"><path style="fill:none" d="M142.327 275.741h396.011v396.011H142.327z" transform="matrix(2.55942 0 0 2.55945 -468.09 -811.862)"/><circle cx="4361.54" cy="1220.52" r="308.919" style="fill:url(#a)" transform="matrix(1.26695 0 0 1.26694 -5122.883 -1145.66)"/><path d="M425.719 1436.12v-4.95c0-79.69 64.698-144.39 144.389-144.39h131.221c79.691 0 144.39 64.7 144.39 144.39v4.95c-55.141 51.15-128.946 82.43-210 82.43-81.055 0-154.86-31.28-210-82.43z" style="fill:#fff" transform="matrix(1.26695 0 0 1.26694 -402.457 -1131.872)"/><circle cx="4361.54" cy="1220.52" r="308.919" style="fill:#fff" transform="matrix(.53517 0 0 .53517 -1931.2 -344.003)"/><defs><linearGradient id="a" x1="0" y1="0" x2="1" y2="0" gradientUnits="userSpaceOnUse" gradientTransform="scale(1131.379) rotate(-45 3.48 -3.51)"><stop offset="0" style="stop-color:#96e1aa;stop-opacity:1"/><stop offset="1" style="stop-color:#0095d9;stop-opacity:1"/></linearGradient></defs></svg>