<svg xmlns="http://www.w3.org/2000/svg" version="1.0" width="256" height="256" viewBox="0 0 192 192"><path style="opacity:1;fill:#22b14c;fill-opacity:1;stroke:none;stroke-width:19.79185486;stroke-miterlimit:4;stroke-dasharray:none;stroke-opacity:1" d="M-.814 0h197.695v194.117H-.814z"/><g style="fill:#fff;fill-opacity:1;stroke:none"><path d="M841 1248c-72-155-281-691-281-721 0-4 41-6 91-5l92 3 30 88 30 87h333l29-90 29-90h98c54 0 98 2 98 5 0 29-217 577-299 758l-31 67H889zm158-151c12-34 38-104 57-154l34-93H969c-93 0-120 3-117 13 49 132 114 297 118 297 3 0 16-28 29-63z" style="fill:#fff;fill-opacity:1" transform="matrix(.1 0 0 -.1 0 192)"/></g></svg>
