<svg xmlns="http://www.w3.org/2000/svg" viewBox="0 0 256 256" height="256" width="256"><style type="text/css">@media (prefers-color-scheme:light){path{fill:#1b1f23}}@media (prefers-color-scheme:dark){path{fill:#fff}}</style><path d="M128.05 4.163C57.893 4.163 1.068 60.987 1.068 131.145c0 56.19 36.349 103.65 86.824 120.474 6.35 1.112 8.73-2.698 8.73-6.031 0-3.016-.158-13.016-.158-23.65-31.905 5.872-40.159-7.778-42.698-14.921-1.429-3.65-7.62-14.92-13.016-17.936-4.444-2.381-10.793-8.254-.159-8.413 10-.159 17.143 9.206 19.524 13.016 11.428 19.206 29.682 13.81 36.984 10.476 1.11-8.254 4.444-13.81 8.095-16.984C76.94 184 47.417 173.049 47.417 124.478c0-13.809 4.92-25.237 13.015-34.126-1.27-3.175-5.714-16.19 1.27-33.65 0 0 10.635-3.334 34.92 13.015 10.159-2.857 20.952-4.285 31.746-4.285 10.793 0 21.587 1.428 31.745 4.285 24.286-16.507 34.92-13.015 34.92-13.015 6.985 17.46 2.54 30.475 1.27 33.65 8.096 8.889 13.016 20.158 13.016 34.126 0 48.73-29.682 59.523-57.936 62.698 4.604 3.968 8.572 11.587 8.572 23.492 0 16.984-.159 30.634-.159 34.92 0 3.333 2.381 7.301 8.73 6.031 50.158-16.825 86.507-64.443 86.507-120.474 0-70.158-56.825-126.982-126.983-126.982z" fill="#1b1f23" style="clip-rule:evenodd;fill-rule:evenodd;stroke-width:15.87279129"/></svg>
