<svg xmlns="http://www.w3.org/2000/svg" width="256" height="256" viewBox="0 0 256 256"><style type="text/css">@media (prefers-color-scheme:light){path{fill:#333}}@media (prefers-color-scheme:dark){path{fill:#fff}}</style><path d="M127.854 256.2C57.42 256.2 0 198.78 0 128.346 0 57.91 57.42.492 127.854.492c70.435 0 127.854 57.42 127.854 127.854-.255 70.434-57.42 127.854-127.854 127.854Zm0-239.376c-61.502 0-111.521 50.019-111.521 111.522 0 61.502 50.019 111.521 111.521 111.521 61.503 0 111.522-50.018 111.522-111.521S189.357 16.824 127.854 16.824z" fill="#333" style="stroke-width:2.55198073"/><path d="M142.42 65.373c-6.115-12.738-9.937-24.968-11.975-32.101v90.445c3.057 1.274 5.35 4.076 5.35 7.643 0 4.586-3.821 8.408-8.407 8.408s-8.408-3.822-8.408-8.408c0-3.821 2.548-6.879 5.86-7.898v-90.19c-2.038 7.133-5.605 19.363-11.975 32.101-9.681 19.873-21.91 37.198-21.91 37.198l7.898 106.496s7.388 8.152 28.79 8.152c21.4 0 28.789-8.152 28.789-8.152l7.898-106.496s-12.23-17.325-21.91-37.198z" fill="#333" style="stroke-width:2.5477519"/></svg>
