<svg xmlns="http://www.w3.org/2000/svg" width="256" height="256" viewBox="0 0 240 240"><path d="M227.741 143.79c-3.27 16.822-29.287 35.234-59.168 38.802-15.582 1.859-30.924 3.568-47.283 2.817-26.754-1.225-47.864-6.385-47.864-6.385 0 2.604.16 5.084.482 7.403 3.478 26.403 26.18 27.985 47.685 28.722 21.706.743 41.033-5.351 41.033-5.351l.892 19.622s-15.182 8.153-42.228 9.653c-14.913.82-33.431-.376-55-6.084-46.777-12.382-54.821-62.244-56.052-112.837-.375-15.022-.144-29.187-.144-41.033 0-51.735 33.896-66.899 33.896-66.899C61.082 4.37 90.41 1.07 120.898.82h.75c30.488.25 59.835 3.55 76.925 11.4 0 0 33.896 15.164 33.896 66.899 0 0 .425 38.17-4.728 64.67" style="fill:#2b90d9;stroke-width:1.02790594"/><path d="M192.37 83.372v62.825h-24.89V85.219c0-12.854-5.408-19.379-16.226-19.379-11.961 0-17.956 7.74-17.956 23.044v33.376h-24.743V88.884c0-15.304-5.996-23.044-17.957-23.044-10.818 0-16.226 6.525-16.226 19.379v60.978h-24.89V83.372c0-12.84 3.27-23.043 9.836-30.592 6.772-7.549 15.64-11.418 26.649-11.418 12.737 0 22.382 4.895 28.76 14.687l6.2 10.393 6.2-10.393c6.376-9.792 16.022-14.687 28.76-14.687 11.007 0 19.875 3.87 26.648 11.418 6.566 7.549 9.835 17.752 9.835 30.592" style="fill:#fff;stroke-width:1.03090215"/></svg>