<svg xmlns="http://www.w3.org/2000/svg" version="1.0" width="256" height="256" viewBox="0 0 192 192"><style type="text/css">@media (prefers-color-scheme:light){g{fill:#000}}@media (prefers-color-scheme:dark){g{fill:#fff}}</style><g fill="#000" style="stroke:none"><path d="M109.96 20.424c-12.73 1.032-22.248 3.555-31.346 8.276-8.888 4.607-16.744 11.411-22.631 19.611-5.467 7.588-10.13 17.91-13.284 29.359-2.18 7.932-3.555 15.157-5.925 30.792-.975 6.365-1.568 9.251-2.523 12.195-1.759 5.37-3.9 7.645-7.206 7.645-2.542 0-3.001-.172-12.443-5.046-1.74-.898-1.988-.975-3.25-.975-1.796 0-2.733.478-4.835 2.466-2.944 2.771-5.2 6.308-5.371 8.41-.172 2.045.955 3.976 4.109 7.015 5.39 5.199 12.175 9.385 23.185 14.316 1.95.88 3.613 1.644 3.689 1.72.076.077-.248.574-.745 1.128-.497.535-.86 1.013-.822 1.051.038.038 1.28.593 2.752 1.262 7.512 3.326 16.247 6.326 23.797 8.219 1.319.325 2.504.63 2.637.669.134.057.478-.42.822-1.109 2.103-4.167 5.582-7.378 10.111-9.327 3.135-1.358 6.365-2.103 10.838-2.485 2.829-.249 5.352-.115 9.614.497.994.153 2.504.325 3.364.401 1.472.115 1.625.096 3.345-.592 3.498-1.377 7.646-3.804 10.494-6.117 1.93-1.586 2.102-1.777 2.102-2.39 0-.324-.038-.572-.076-.572-.21 0-2.676 1.51-5.658 3.478-3.937 2.6-6.67 4.11-7.894 4.34-.497.076-1.357.076-1.988-.02-1.338-.191-5.409-1.109-5.734-1.28-.134-.077.593-.612 1.701-1.262 3.307-1.95 4.912-3.766 5.734-6.46.536-1.816.42-4.435-.306-6.327-.707-1.873-1.968-3.555-3.383-4.492-1.605-1.07-2.905-1.434-5.141-1.414-1.873 0-2.657.172-7.244 1.49-3.02.86-6.46 1.434-11.717 1.912-1.663.153-3.192.363-3.421.478-.593.325-.383 1.032.917 3.23 3.096 5.16 7.13 9.404 11.2 11.774.517.287.86.592.765.669-.459.44-7.875 2.561-11.239 3.23-13.226 2.58-24.236 1.262-37.826-4.549-10.379-4.453-21.101-11.717-23.166-15.692-.726-1.415-.764-3.097-.076-4.492.573-1.147 3.937-4.587 4.874-4.989 1.586-.65 2.962-.267 8.028 2.237 4.702 2.312 6.173 2.733 8.983 2.618 1.682-.076 2.064-.153 3.192-.707 1.414-.707 3-2.217 3.842-3.67.287-.497.86-1.797 1.28-2.924 1.683-4.435 2.734-8.965 3.919-16.744 2.083-13.82 3.612-21.656 5.638-29.034 3.46-12.634 8.334-22.764 14.871-30.983 1.873-2.332 5.925-6.499 8.257-8.449C80.812 28.662 97.06 23.33 115.981 23.33c12.004 0 22.593 2.275 33.143 7.13 8.602 3.956 13.686 7.798 18.197 13.8 7.282 9.652 12.08 25.555 13.246 43.904.114 1.74.344 5.39.516 8.124.764 13.073 2.389 25.402 5.046 38.705 1.3 6.575 2.523 11.85 2.714 11.85.095 0 .84-.516 1.663-1.127l1.49-1.147-.65-2.733c-3.67-15.654-6.25-33.774-7.224-50.71-.727-12.557-3.632-26.816-7.283-35.837-5.065-12.463-12.997-21.179-24.255-26.664-8.085-3.938-17.718-6.67-27.715-7.837-2.561-.306-12.615-.535-14.909-.363zM90.464 136.368c.956.497 2.045 1.53 2.638 2.466 1.09 1.777 1.395 4.53.688 6.384-.765 2.064-3.517 4.434-6.46 5.6-1.128.459-1.53.497-3.747.516-2.102 0-2.695-.076-3.803-.44-4.205-1.414-7.015-3.841-10.513-9.117-.688-1.032-1.223-1.911-1.185-1.95.038-.037 3.593-.917 7.875-1.968 4.3-1.032 7.99-1.911 8.2-1.969.21-.057 1.51-.095 2.867-.057 2.274.02 2.561.076 3.44.535z"/><path d="M110.973 77.593c-.19.039-.344.153-.344.249 0 .401.65 3.574 1.147 5.543 1.873 7.435 2.676 11.678 4.587 24.083 2.39 15.52 3.212 19.917 4.32 23.3 3.116 9.327 9.156 15.234 18.33 17.89 3.594 1.032 5.773 1.32 10.226 1.338 4.32 0 5.524-.133 8.792-.974 3.48-.899 6.46-2.237 9.557-4.301 2.542-1.682 6.365-5.543 8.162-8.238 1.682-2.504 2.867-4.912 3.039-6.136.115-.86.096-.898-.363-.898-.325 0-.535.134-.612.401-.21.612-4.492 6.996-5.849 8.659-2.79 3.498-6.995 6.346-11.506 7.856-2.963.994-5.084 1.3-8.83 1.3-5.964.019-11.622-1.11-16.056-3.23-4.588-2.16-8.582-6.232-10.685-10.838-1.472-3.211-3.25-9.825-5.275-19.515-7.302-34.979-7.627-36.431-8.143-36.546-.095-.02-.325 0-.497.057zM81.538 82.83c-2.561.345-5.83 1.855-7.894 3.632-4.186 3.613-6.804 8.372-7.856 14.22-.477 2.715-.477 9.003 0 11.641 1.472 8.047 5.773 12.749 13.112 14.316 2.753.593 7.531.574 9.748-.019 5.448-1.472 9.462-5.16 11.335-10.455 3.326-9.366 1.969-18.56-3.88-26.454-3.861-5.218-9.022-7.645-14.565-6.88zm4.186 2.37c6.613 1.262 12.539 8.525 14.125 17.299.497 2.714.44 6.995-.115 9.46-1.529 6.901-5.772 11.756-11.64 13.323-1.567.42-4.778.535-5.849.191l-.573-.172.86-.23c3-.745 4.415-1.528 6.422-3.535 1.72-1.72 2.714-3.326 3.498-5.62.478-1.414.497-1.643.497-5.772-.02-3.823-.057-4.473-.44-5.925-.669-2.542-1.605-4.282-3.172-5.849-2.199-2.198-4.836-3.268-8.43-3.46-3.536-.172-6.212.86-8.716 3.364-1.223 1.224-1.624 1.778-2.427 3.46-.535 1.109-1.319 3.211-1.74 4.664-.439 1.472-.821 2.695-.86 2.733-.019.038-.114-.822-.171-1.93-.517-9.156 4.052-17.604 11.353-21.026 2.504-1.185 4.76-1.471 7.378-.974z"/></g></svg>
