<svg xmlns:osb="http://www.openswatchbook.org/uri/2009/osb" xmlns="http://www.w3.org/2000/svg" xmlns:xlink="http://www.w3.org/1999/xlink" viewBox="0 0 1125 1125" height="1500" width="1500" version="1.0"><defs><linearGradient id="a" osb:paint="solid"><stop style="stop-color:#fff;stop-opacity:1" offset="0"/></linearGradient><linearGradient xlink:href="#a" id="b" x1="681.77" y1="754.94" x2="1320.367" y2="754.94" gradientUnits="userSpaceOnUse" gradientTransform="translate(-435 -434.925)"/></defs><ellipse style="opacity:1;fill:#ffce00;fill-opacity:1;stroke:none;stroke-width:0;stroke-miterlimit:4;stroke-dasharray:none;stroke-opacity:1" cx="565.472" cy="567.461" rx="548.307" ry="546.446"/><ellipse style="fill:#fff;fill-opacity:1;stroke-width:.60357589" cx="569.237" cy="669.948" rx="425.847" ry="354.873"/><path style="fill:url(#b);fill-opacity:1;stroke:#000e00;stroke-width:.75px;stroke-linecap:butt;stroke-linejoin:miter;stroke-opacity:0" d="M247.203 499.397 299 141.375l138.881 239.378 260.593-6.356 125-205.508 61.441 326.27z"/><path d="M428-22.325c0 .8.5 1.2 1 .9.6-.4.8-1.1.5-1.6-.9-1.4-1.5-1.1-1.5.7zm90.5 32.9c-119.2 10.2-227 55.6-318.5 134.1-14.8 12.7-42.7 40.6-55.4 55.4-72.1 84-116.7 183-131.1 290.5-6 45.4-6 101.6 0 147 14.4 107.5 59 206.5 131.1 290.5 12.7 14.8 40.6 42.7 55.4 55.4 92 78.9 200 124.2 320 134.1 22.4 1.9 65.6 1.9 88 0 120-9.9 228-55.2 320-134.1 14.8-12.7 42.7-40.6 55.4-55.4 72.1-84 116.7-183 131.1-290.5 6-45.4 6-101.6 0-147-14.4-107.5-59-206.5-131.1-290.5-12.7-14.8-40.6-42.7-55.4-55.4-92-79-199.8-124.1-320-134.1-21.4-1.8-68.5-1.8-89.5 0zm97.5 17c112.9 11.6 215.5 55.6 300.5 128.6 15.4 13.3 42.1 40 55.4 55.4 59.6 69.4 101.1 153.2 119.6 241.6 8.1 38.8 10.9 67.8 10.9 110.9 0 35.1-.7 46.8-5 76.9-14.3 101.1-58.1 197.1-125.5 275.6-13.3 15.4-40 42.1-55.4 55.4-69.4 59.6-153.2 101.1-241.6 119.6-18.1 3.7-43.9 7.6-64.4 9.7-17.2 1.7-75.8 1.7-93 0-72.4-7.2-134.6-25-196.4-56.2-52.3-26.4-96.6-58.5-138.1-100s-73.6-85.8-100-138.1c-31.2-61.8-49-124-56.2-196.4-1.7-17.2-1.7-75.8 0-93 7.2-72.4 25-134.6 56.2-196.4 26.4-52.3 58.5-96.6 100-138.1 58.6-58.6 128.6-102.3 206.7-129 47.3-16.2 88.7-24.2 146.8-28.4 11.9-.9 65 .4 79.5 1.9z"/><path d="M299 141.375c0 .2-6.1 30.1-13.6 66.3-7.4 36.3-20.3 99.7-28.6 141.1l-15 75.2-15.2 15.3c-90.3 91.1-121.1 210.3-83.6 323.8 36.1 109.6 131.9 198.1 260.5 240.5 70.1 23.2 147.9 30.8 224.5 21.9 139.1-16.1 262.1-88.3 327.1-192 56.1-89.6 63.9-195.9 21.3-290.9-16.7-37.3-40.8-71.8-72-103.3l-15.2-15.3-15-75.2c-15.6-77.6-42-206.9-42.5-207.3-1-1.1-93.1 132.9-119.6 173.9-5.8 9-6.6 9.9-9 9.4-1.4-.3-10.5-2.3-20.1-4.6-19.2-4.5-41-8.1-65-10.8-12-1.3-23.9-1.7-52.5-1.7s-40.5.4-52.5 1.7c-24 2.7-45.8 6.3-65 10.8-9.6 2.3-18.7 4.3-20.2 4.6-2.4.5-3.1-.3-7.9-7.9-24.6-38.5-120.9-178.4-120.9-175.5zm32.5 98c25 36.3 59.1 87.6 70 105.2 5.4 8.8 10 16.1 10.1 16.3.1.2 5.5-1.2 12.1-3.2 91.5-27.4 192.1-27.4 283.6 0 6.6 2 12 3.4 12.1 3.2.1-.2 4.7-7.5 10.1-16.3 15.8-25.6 85-128.4 86.5-128.5.3 0 1.8 6 3.2 13.2 1.5 7.3 11.6 57.6 22.5 111.8l19.8 98.5 18.6 18.5c20.2 20.1 31.5 33.7 44.3 53 23.7 35.7 38 71.1 45.3 112 2.1 11.9 2.6 18.7 3 38 .6 25.2-.7 41.3-4.7 61-28.8 141.5-168.9 252.9-343.5 273.4-116.3 13.7-233.7-13.7-323-75.3-27.1-18.7-59.2-48.2-77.9-71.6-24.2-30.4-43.7-66.8-54-100.8-13.2-43.4-15.3-91.9-6-135.8 12.4-58.8 42.9-111.5 91.7-158.5l14.5-13.9 6-31.5c9.9-51.2 38.6-192 39.2-192 .3.1 7.7 10.5 16.5 23.3z"/><path d="M317.5 574.275c-15.4 19.3-28.1 35.5-28.3 36-.2.4 9.2.8 21 .8h21.3l36-36 36-36-29 .1h-29zm446 .8 36 36 21.4-.2 21.3-.3-28.6-35.8-28.6-35.7h-57.5zm-314.8 24.9c-6.5 3.8-12 7.1-12.3 7.4-.3.3 28.6 51.4 64.2 113.7 35.5 62.2 65 112.8 65.4 112.3.7-.8 129-225.3 129-225.8s-25-14.5-25.7-14.5c-.5 0-7.1 11.2-14.8 24.8l-14.1 24.7-74.9.2-75 .2-14-24.6c-7.7-13.6-14.4-24.8-15-24.9-.5-.2-6.3 2.8-12.8 6.5zm173.3 74c0 2-56.3 99.2-57.1 98.4-.6-.6-51.7-89.6-56-97.6-.9-1.6 2.1-1.7 56.1-1.7 32.2 0 57 .4 57 .9zm638.5-468.9c-.3.5-.4 1-.1 1 .2 0 1.2.3 2 .6 1.2.5 1.5.2 1-1-.7-1.8-2-2.1-2.9-.6zm53.2 131.6c-.3 1.9-.1 2.4 1 2 .8-.3 1.6-.6 1.8-.6.2 0 .1-.9-.2-2-.7-2.8-2-2.5-2.6.6zM45 871.675c0 .8.5 1.2 1 .9.6-.4.8-1.1.5-1.6-.9-1.4-1.5-1.1-1.5.7zm39.7 42.1c-1.3 1.2-.7 1.9 3.9 5.2l4.6 3.2-2.1-2.8c-5-6.8-5.2-6.9-6.4-5.6z"/></svg>